<svg width="107" height="23" viewBox="0 0 107 23" fill="none" xmlns="http://www.w3.org/2000/svg">
<path d="M3.02273 2.57244L6.86861 13.8267H7.02379L10.8697 2.57244H13.1232L8.15057 16.3906H5.74183L0.769176 2.57244H3.02273ZM16.8436 2.57244V16.3906H14.7587V2.57244H16.8436ZM19.5198 16.3906V2.57244H28.1831V4.36719H21.6047V8.57741H27.7311V10.3654H21.6047V14.5959H28.2641V16.3906H19.5198ZM33.3136 16.3906L29.4813 2.57244H31.6741L34.3662 13.2734H34.4944L37.2945 2.57244H39.4671L42.2671 13.2802H42.3953L45.0807 2.57244H47.2803L43.4411 16.3906H41.3428L38.4347 6.04048H38.3268L35.4188 16.3906H33.3136ZM53.4896 2.57244H56.0198L60.4189 13.3139H60.5809L64.98 2.57244H67.5102V16.3906H65.5265V6.39133H65.3983L61.323 16.3704H59.6767L55.6015 6.38459H55.4733V16.3906H53.4896V2.57244ZM82.1845 9.48153C82.1845 10.9569 81.9147 12.2254 81.3749 13.2869C80.8351 14.344 80.0952 15.1581 79.1551 15.7294C78.2195 16.2962 77.1557 16.5795 75.9637 16.5795C74.7672 16.5795 73.6989 16.2962 72.7588 15.7294C71.8232 15.1581 71.0855 14.3417 70.5457 13.2802C70.0059 12.2186 69.736 10.9524 69.736 9.48153C69.736 8.00615 70.0059 6.73994 70.5457 5.68288C71.0855 4.62133 71.8232 3.80717 72.7588 3.24041C73.6989 2.66915 74.7672 2.38352 75.9637 2.38352C77.1557 2.38352 78.2195 2.66915 79.1551 3.24041C80.0952 3.80717 80.8351 4.62133 81.3749 5.68288C81.9147 6.73994 82.1845 8.00615 82.1845 9.48153ZM80.1199 9.48153C80.1199 8.35701 79.9377 7.41016 79.5734 6.64098C79.2135 5.86731 78.7188 5.28255 78.089 4.88672C77.4638 4.48639 76.7553 4.28622 75.9637 4.28622C75.1675 4.28622 74.4568 4.48639 73.8316 4.88672C73.2063 5.28255 72.7115 5.86731 72.3472 6.64098C71.9873 7.41016 71.8074 8.35701 71.8074 9.48153C71.8074 10.6061 71.9873 11.5552 72.3472 12.3288C72.7115 13.098 73.2063 13.6828 73.8316 14.0831C74.4568 14.4789 75.1675 14.6768 75.9637 14.6768C76.7553 14.6768 77.4638 14.4789 78.089 14.0831C78.7188 13.6828 79.2135 13.098 79.5734 12.3288C79.9377 11.5552 80.1199 10.6061 80.1199 9.48153ZM84.4239 16.3906V2.57244H89.3493C90.4199 2.57244 91.3082 2.75687 92.0144 3.12571C92.7252 3.49455 93.2559 4.00509 93.6068 4.65732C93.9576 5.30504 94.1331 6.05398 94.1331 6.90412C94.1331 7.74976 93.9554 8.4942 93.6 9.13743C93.2492 9.77616 92.7184 10.2732 92.0077 10.6286C91.3015 10.9839 90.4131 11.1616 89.3426 11.1616H85.6114V9.36683H89.1537C89.8284 9.36683 90.3771 9.27012 90.8 9.0767C91.2273 8.88329 91.5399 8.60215 91.7378 8.23331C91.9357 7.86446 92.0347 7.4214 92.0347 6.90412C92.0347 6.38234 91.9335 5.93028 91.7311 5.54794C91.5332 5.1656 91.2205 4.87322 90.7932 4.67081C90.3704 4.4639 89.8149 4.36044 89.1267 4.36044H86.5088V16.3906H84.4239ZM91.2453 10.1562L94.6593 16.3906H92.2843L88.9377 10.1562H91.2453ZM96.31 16.3906V2.57244H104.973V4.36719H98.3949V8.57741H104.521V10.3654H98.3949V14.5959H105.054V16.3906H96.31Z" fill="black"/>
<rect x="0.296875" y="21.3906" width="105.625" height="1" fill="black"/>
</svg>
