<svg width="1733" height="23" viewBox="0 0 1733 23" fill="none" xmlns="http://www.w3.org/2000/svg">
<g clip-path="url(#clip0_5_3793)">
<path d="M0.0786133 17.9619L9.57861 1.81934L19.0786 17.9619H0.0786133Z" fill="black"/>
</g>
<path d="M28.2369 16.3906V2.57244H30.3217V8.57741H37.2106V2.57244H39.3022V16.3906H37.2106V10.3654H30.3217V16.3906H28.2369ZM53.9816 9.48153C53.9816 10.9569 53.7117 12.2254 53.172 13.2869C52.6322 14.344 51.8923 15.1581 50.9521 15.7294C50.0165 16.2962 48.9527 16.5795 47.7607 16.5795C46.5642 16.5795 45.4959 16.2962 44.5558 15.7294C43.6202 15.1581 42.8825 14.3417 42.3428 13.2802C41.803 12.2186 41.5331 10.9524 41.5331 9.48153C41.5331 8.00615 41.803 6.73994 42.3428 5.68288C42.8825 4.62133 43.6202 3.80717 44.5558 3.24041C45.4959 2.66915 46.5642 2.38352 47.7607 2.38352C48.9527 2.38352 50.0165 2.66915 50.9521 3.24041C51.8923 3.80717 52.6322 4.62133 53.172 5.68288C53.7117 6.73994 53.9816 8.00615 53.9816 9.48153ZM51.917 9.48153C51.917 8.35701 51.7348 7.41016 51.3705 6.64098C51.0106 5.86731 50.5158 5.28255 49.8861 4.88672C49.2609 4.48639 48.5524 4.28622 47.7607 4.28622C46.9646 4.28622 46.2539 4.48639 45.6286 4.88672C45.0034 5.28255 44.5086 5.86731 44.1443 6.64098C43.7844 7.41016 43.6045 8.35701 43.6045 9.48153C43.6045 10.6061 43.7844 11.5552 44.1443 12.3288C44.5086 13.098 45.0034 13.6828 45.6286 14.0831C46.2539 14.4789 46.9646 14.6768 47.7607 14.6768C48.5524 14.6768 49.2609 14.4789 49.8861 14.0831C50.5158 13.6828 51.0106 13.098 51.3705 12.3288C51.7348 11.5552 51.917 10.6061 51.917 9.48153ZM54.9458 4.36719V2.57244H65.64V4.36719H61.3286V16.3906H59.2504V4.36719H54.9458ZM79.8481 6.20241C79.7761 5.56368 79.4792 5.06889 78.9575 4.71804C78.4357 4.36269 77.779 4.18501 76.9873 4.18501C76.4205 4.18501 75.9302 4.27498 75.5164 4.4549C75.1026 4.63033 74.781 4.87322 74.5516 5.18359C74.3267 5.48946 74.2142 5.83807 74.2142 6.2294C74.2142 6.55776 74.2907 6.84115 74.4436 7.07954C74.601 7.31794 74.8057 7.51811 75.0576 7.68004C75.314 7.83748 75.5884 7.97017 75.8808 8.07812C76.1731 8.18158 76.4543 8.26705 76.7242 8.33452L78.0736 8.68537C78.5144 8.79332 78.9665 8.93951 79.4298 9.12393C79.8931 9.30836 80.3226 9.55125 80.7185 9.85263C81.1143 10.154 81.4337 10.5273 81.6766 10.9727C81.924 11.418 82.0477 11.951 82.0477 12.5717C82.0477 13.3544 81.8452 14.0494 81.4404 14.6566C81.0401 15.2638 80.4576 15.7429 79.6929 16.0938C78.9327 16.4446 78.0129 16.62 76.9333 16.62C75.8988 16.62 75.0036 16.4558 74.2479 16.1275C73.4923 15.7991 72.9008 15.3336 72.4734 14.7308C72.0461 14.1236 71.81 13.4039 71.765 12.5717H73.8566C73.8971 13.071 74.059 13.4871 74.3424 13.82C74.6303 14.1483 74.9969 14.3935 75.4422 14.5554C75.892 14.7128 76.3845 14.7915 76.9198 14.7915C77.5091 14.7915 78.0331 14.6993 78.4919 14.5149C78.9552 14.326 79.3196 14.0651 79.5849 13.7322C79.8503 13.3949 79.983 13.0013 79.983 12.5515C79.983 12.1422 79.8661 11.8071 79.6322 11.5462C79.4028 11.2853 79.0902 11.0694 78.6943 10.8984C78.303 10.7275 77.8599 10.5768 77.3651 10.4464L75.7323 10.0011C74.6258 9.69969 73.7487 9.25663 73.1009 8.67188C72.4577 8.08712 72.1361 7.31345 72.1361 6.35085C72.1361 5.55469 72.352 4.85973 72.7838 4.26598C73.2156 3.67223 73.8004 3.21117 74.5381 2.88281C75.2758 2.54995 76.1079 2.38352 77.0345 2.38352C77.9701 2.38352 78.7955 2.5477 79.5107 2.87607C80.2304 3.20443 80.7972 3.65649 81.211 4.23224C81.6248 4.8035 81.8407 5.46023 81.8587 6.20241H79.8481ZM83.4976 4.36719V2.57244H94.1918V4.36719H89.8804V16.3906H87.8023V4.36719H83.4976ZM105.081 2.57244H107.173V11.6609C107.173 12.628 106.945 13.4848 106.491 14.2315C106.037 14.9737 105.398 15.5585 104.575 15.9858C103.752 16.4086 102.787 16.62 101.68 16.62C100.578 16.62 99.6158 16.4086 98.7927 15.9858C97.9695 15.5585 97.3308 14.9737 96.8765 14.2315C96.4222 13.4848 96.195 12.628 96.195 11.6609V2.57244H98.2799V11.4922C98.2799 12.1174 98.4171 12.6729 98.6915 13.1587C98.9704 13.6445 99.3639 14.0269 99.8722 14.3058C100.381 14.5801 100.983 14.7173 101.68 14.7173C102.382 14.7173 102.987 14.5801 103.495 14.3058C104.008 14.0269 104.4 13.6445 104.669 13.1587C104.944 12.6729 105.081 12.1174 105.081 11.4922V2.57244ZM109.844 16.3906V2.57244H118.413V4.36719H111.929V8.57741H117.799V10.3654H111.929V16.3906H109.844ZM120.617 16.3906V2.57244H129.186V4.36719H122.702V8.57741H128.572V10.3654H122.702V16.3906H120.617Z" fill="black"/>
<path d="M1629.02 2.57244L1632.87 13.8267H1633.02L1636.87 2.57244H1639.12L1634.15 16.3906H1631.74L1626.77 2.57244H1629.02ZM1642.84 2.57244V16.3906H1640.76V2.57244H1642.84ZM1645.52 16.3906V2.57244H1654.18V4.36719H1647.6V8.57741H1653.73V10.3654H1647.6V14.5959H1654.26V16.3906H1645.52ZM1659.31 16.3906L1655.48 2.57244H1657.67L1660.37 13.2734H1660.49L1663.29 2.57244H1665.47L1668.27 13.2802H1668.4L1671.08 2.57244H1673.28L1669.44 16.3906H1667.34L1664.43 6.04048H1664.33L1661.42 16.3906H1659.31ZM1679.49 2.57244H1682.02L1686.42 13.3139H1686.58L1690.98 2.57244H1693.51V16.3906H1691.53V6.39133H1691.4L1687.32 16.3704H1685.68L1681.6 6.38459H1681.47V16.3906H1679.49V2.57244ZM1708.18 9.48153C1708.18 10.9569 1707.91 12.2254 1707.37 13.2869C1706.84 14.344 1706.1 15.1581 1705.16 15.7294C1704.22 16.2962 1703.16 16.5795 1701.96 16.5795C1700.77 16.5795 1699.7 16.2962 1698.76 15.7294C1697.82 15.1581 1697.09 14.3417 1696.55 13.2802C1696.01 12.2186 1695.74 10.9524 1695.74 9.48153C1695.74 8.00615 1696.01 6.73994 1696.55 5.68288C1697.09 4.62133 1697.82 3.80717 1698.76 3.24041C1699.7 2.66915 1700.77 2.38352 1701.96 2.38352C1703.16 2.38352 1704.22 2.66915 1705.16 3.24041C1706.1 3.80717 1706.84 4.62133 1707.37 5.68288C1707.91 6.73994 1708.18 8.00615 1708.18 9.48153ZM1706.12 9.48153C1706.12 8.35701 1705.94 7.41016 1705.57 6.64098C1705.21 5.86731 1704.72 5.28255 1704.09 4.88672C1703.46 4.48639 1702.76 4.28622 1701.96 4.28622C1701.17 4.28622 1700.46 4.48639 1699.83 4.88672C1699.21 5.28255 1698.71 5.86731 1698.35 6.64098C1697.99 7.41016 1697.81 8.35701 1697.81 9.48153C1697.81 10.6061 1697.99 11.5552 1698.35 12.3288C1698.71 13.098 1699.21 13.6828 1699.83 14.0831C1700.46 14.4789 1701.17 14.6768 1701.96 14.6768C1702.76 14.6768 1703.46 14.4789 1704.09 14.0831C1704.72 13.6828 1705.21 13.098 1705.57 12.3288C1705.94 11.5552 1706.12 10.6061 1706.12 9.48153ZM1710.42 16.3906V2.57244H1715.35C1716.42 2.57244 1717.31 2.75687 1718.01 3.12571C1718.73 3.49455 1719.26 4.00509 1719.61 4.65732C1719.96 5.30504 1720.13 6.05398 1720.13 6.90412C1720.13 7.74976 1719.96 8.4942 1719.6 9.13743C1719.25 9.77616 1718.72 10.2732 1718.01 10.6286C1717.3 10.9839 1716.41 11.1616 1715.34 11.1616H1711.61V9.36683H1715.15C1715.83 9.36683 1716.38 9.27012 1716.8 9.0767C1717.23 8.88329 1717.54 8.60215 1717.74 8.23331C1717.94 7.86446 1718.03 7.4214 1718.03 6.90412C1718.03 6.38234 1717.93 5.93028 1717.73 5.54794C1717.53 5.1656 1717.22 4.87322 1716.79 4.67081C1716.37 4.4639 1715.81 4.36044 1715.13 4.36044H1712.51V16.3906H1710.42ZM1717.25 10.1562L1720.66 16.3906H1718.28L1714.94 10.1562H1717.25ZM1722.31 16.3906V2.57244H1730.97V4.36719H1724.39V8.57741H1730.52V10.3654H1724.39V14.5959H1731.05V16.3906H1722.31Z" fill="black"/>
<rect x="1626.3" y="21.3906" width="105.625" height="1" fill="black"/>
<defs>
<clipPath id="clip0_5_3793">
<rect width="18.6406" height="19" fill="white" transform="matrix(1 0 0 -1 0.078125 19.3906)"/>
</clipPath>
</defs>
</svg>
