<svg width="161" height="19" viewBox="0 0 161 19" fill="none" xmlns="http://www.w3.org/2000/svg">
<rect x="0.078125" width="17" height="17" rx="8.5" fill="black"/>
<path d="M26.5962 16V2.18182H28.6811V14.2053H34.9425V16H26.5962ZM38.8332 16H36.6201L41.5928 2.18182H44.0015L48.9742 16H46.7611L42.8545 4.69176H42.7465L38.8332 16ZM39.2043 10.5888H46.3833V12.343H39.2043V10.5888ZM48.2954 3.97656V2.18182H58.9896V3.97656H54.6782V16H52.6V3.97656H48.2954ZM60.9928 16V2.18182H69.6561V3.97656H63.0777V8.18679H69.2041V9.97479H63.0777V14.2053H69.7371V16H60.9928ZM79.6176 5.81179C79.5456 5.17306 79.2488 4.67827 78.727 4.32741C78.2052 3.97206 77.5485 3.79439 76.7568 3.79439C76.1901 3.79439 75.6998 3.88435 75.2859 4.06427C74.8721 4.2397 74.5505 4.4826 74.3211 4.79297C74.0962 5.09884 73.9837 5.44744 73.9837 5.83878C73.9837 6.16714 74.0602 6.45052 74.2131 6.68892C74.3706 6.92732 74.5752 7.12749 74.8271 7.28942C75.0835 7.44685 75.3579 7.57955 75.6503 7.6875C75.9427 7.79096 76.2238 7.87642 76.4937 7.94389L77.8431 8.29474C78.2839 8.4027 78.736 8.54889 79.1993 8.73331C79.6626 8.91773 80.0922 9.16063 80.488 9.462C80.8838 9.76338 81.2032 10.1367 81.4461 10.582C81.6935 11.0273 81.8172 11.5604 81.8172 12.1811C81.8172 12.9638 81.6148 13.6587 81.2099 14.266C80.8096 14.8732 80.2271 15.3523 79.4624 15.7031C78.7023 16.054 77.7824 16.2294 76.7028 16.2294C75.6683 16.2294 74.7732 16.0652 74.0175 15.7369C73.2618 15.4085 72.6703 14.9429 72.243 14.3402C71.8157 13.733 71.5795 13.0133 71.5345 12.1811H73.6261C73.6666 12.6804 73.8286 13.0965 74.1119 13.4293C74.3998 13.7577 74.7664 14.0028 75.2117 14.1648C75.6615 14.3222 76.1541 14.4009 76.6894 14.4009C77.2786 14.4009 77.8026 14.3087 78.2614 14.1243C78.7247 13.9354 79.0891 13.6745 79.3545 13.3416C79.6199 13.0043 79.7526 12.6107 79.7526 12.1609C79.7526 11.7515 79.6356 11.4164 79.4017 11.1555C79.1723 10.8946 78.8597 10.6787 78.4639 10.5078C78.0725 10.3369 77.6295 10.1862 77.1347 10.0558L75.5019 9.61044C74.3953 9.30907 73.5182 8.866 72.8705 8.28125C72.2272 7.6965 71.9056 6.92282 71.9056 5.96023C71.9056 5.16406 72.1215 4.4691 72.5533 3.87535C72.9852 3.2816 73.5699 2.82055 74.3076 2.49219C75.0453 2.15933 75.8774 1.9929 76.8041 1.9929C77.7397 1.9929 78.5651 2.15708 79.2803 2.48544C80 2.8138 80.5667 3.26586 80.9805 3.84162C81.3944 4.41288 81.6103 5.0696 81.6283 5.81179H79.6176ZM83.2671 3.97656V2.18182H93.9614V3.97656H89.6499V16H87.5718V3.97656H83.2671ZM100.633 16V2.18182H105.558C106.633 2.18182 107.524 2.37749 108.23 2.76882C108.936 3.16016 109.465 3.69543 109.816 4.37464C110.167 5.04936 110.342 5.80954 110.342 6.65518C110.342 7.50533 110.164 8.27 109.809 8.94922C109.458 9.62393 108.927 10.1592 108.217 10.555C107.51 10.9464 106.622 11.142 105.552 11.142H102.164V9.37429H105.363C106.042 9.37429 106.593 9.25734 107.016 9.02344C107.439 8.78504 107.749 8.46117 107.947 8.05185C108.145 7.64252 108.244 7.17696 108.244 6.65518C108.244 6.1334 108.145 5.6701 107.947 5.26527C107.749 4.86044 107.436 4.54332 107.009 4.31392C106.586 4.08452 106.028 3.96982 105.336 3.96982H102.718V16H100.633ZM124.429 9.09091C124.429 10.5663 124.16 11.8348 123.62 12.8963C123.08 13.9534 122.34 14.7675 121.4 15.3388C120.464 15.9055 119.401 16.1889 118.209 16.1889C117.012 16.1889 115.944 15.9055 115.004 15.3388C114.068 14.7675 113.33 13.9511 112.791 12.8896C112.251 11.828 111.981 10.5618 111.981 9.09091C111.981 7.61553 112.251 6.34931 112.791 5.29226C113.33 4.2307 114.068 3.41655 115.004 2.84979C115.944 2.27853 117.012 1.9929 118.209 1.9929C119.401 1.9929 120.464 2.27853 121.4 2.84979C122.34 3.41655 123.08 4.2307 123.62 5.29226C124.16 6.34931 124.429 7.61553 124.429 9.09091ZM122.365 9.09091C122.365 7.96638 122.183 7.01953 121.818 6.25035C121.458 5.47668 120.964 4.89193 120.334 4.49609C119.709 4.09576 119 3.8956 118.209 3.8956C117.412 3.8956 116.702 4.09576 116.076 4.49609C115.451 4.89193 114.956 5.47668 114.592 6.25035C114.232 7.01953 114.052 7.96638 114.052 9.09091C114.052 10.2154 114.232 11.1645 114.592 11.9382C114.956 12.7074 115.451 13.2921 116.076 13.6925C116.702 14.0883 117.412 14.2862 118.209 14.2862C119 14.2862 119.709 14.0883 120.334 13.6925C120.964 13.2921 121.458 12.7074 121.818 11.9382C122.183 11.1645 122.365 10.2154 122.365 9.09091ZM134.205 5.81179C134.133 5.17306 133.836 4.67827 133.315 4.32741C132.793 3.97206 132.136 3.79439 131.345 3.79439C130.778 3.79439 130.287 3.88435 129.874 4.06427C129.46 4.2397 129.138 4.4826 128.909 4.79297C128.684 5.09884 128.571 5.44744 128.571 5.83878C128.571 6.16714 128.648 6.45052 128.801 6.68892C128.958 6.92732 129.163 7.12749 129.415 7.28942C129.671 7.44685 129.946 7.57955 130.238 7.6875C130.53 7.79096 130.811 7.87642 131.081 7.94389L132.431 8.29474C132.872 8.4027 133.324 8.54889 133.787 8.73331C134.25 8.91773 134.68 9.16063 135.076 9.462C135.472 9.76338 135.791 10.1367 136.034 10.582C136.281 11.0273 136.405 11.5604 136.405 12.1811C136.405 12.9638 136.202 13.6587 135.798 14.266C135.397 14.8732 134.815 15.3523 134.05 15.7031C133.29 16.054 132.37 16.2294 131.291 16.2294C130.256 16.2294 129.361 16.0652 128.605 15.7369C127.849 15.4085 127.258 14.9429 126.831 14.3402C126.403 13.733 126.167 13.0133 126.122 12.1811H128.214C128.254 12.6804 128.416 13.0965 128.7 13.4293C128.988 13.7577 129.354 14.0028 129.799 14.1648C130.249 14.3222 130.742 14.4009 131.277 14.4009C131.866 14.4009 132.39 14.3087 132.849 14.1243C133.312 13.9354 133.677 13.6745 133.942 13.3416C134.208 13.0043 134.34 12.6107 134.34 12.1609C134.34 11.7515 134.223 11.4164 133.989 11.1555C133.76 10.8946 133.447 10.6787 133.052 10.5078C132.66 10.3369 132.217 10.1862 131.722 10.0558L130.09 9.61044C128.983 9.30907 128.106 8.866 127.458 8.28125C126.815 7.6965 126.493 6.92282 126.493 5.96023C126.493 5.16406 126.709 4.4691 127.141 3.87535C127.573 3.2816 128.158 2.82055 128.895 2.49219C129.633 2.15933 130.465 1.9929 131.392 1.9929C132.327 1.9929 133.153 2.15708 133.868 2.48544C134.588 2.8138 135.154 3.26586 135.568 3.84162C135.982 4.41288 136.198 5.0696 136.216 5.81179H134.205ZM137.855 3.97656V2.18182H148.549V3.97656H144.238V16H142.16V3.97656H137.855ZM158.089 5.81179C158.017 5.17306 157.72 4.67827 157.198 4.32741C156.676 3.97206 156.02 3.79439 155.228 3.79439C154.661 3.79439 154.171 3.88435 153.757 4.06427C153.343 4.2397 153.022 4.4826 152.792 4.79297C152.567 5.09884 152.455 5.44744 152.455 5.83878C152.455 6.16714 152.531 6.45052 152.684 6.68892C152.842 6.92732 153.046 7.12749 153.298 7.28942C153.555 7.44685 153.829 7.57955 154.121 7.6875C154.414 7.79096 154.695 7.87642 154.965 7.94389L156.314 8.29474C156.755 8.4027 157.207 8.54889 157.671 8.73331C158.134 8.91773 158.563 9.16063 158.959 9.462C159.355 9.76338 159.674 10.1367 159.917 10.582C160.165 11.0273 160.288 11.5604 160.288 12.1811C160.288 12.9638 160.086 13.6587 159.681 14.266C159.281 14.8732 158.698 15.3523 157.934 15.7031C157.173 16.054 156.254 16.2294 155.174 16.2294C154.139 16.2294 153.244 16.0652 152.489 15.7369C151.733 15.4085 151.142 14.9429 150.714 14.3402C150.287 13.733 150.051 13.0133 150.006 12.1811H152.097C152.138 12.6804 152.3 13.0965 152.583 13.4293C152.871 13.7577 153.238 14.0028 153.683 14.1648C154.133 14.3222 154.625 14.4009 155.161 14.4009C155.75 14.4009 156.274 14.3087 156.733 14.1243C157.196 13.9354 157.56 13.6745 157.826 13.3416C158.091 13.0043 158.224 12.6107 158.224 12.1609C158.224 11.7515 158.107 11.4164 157.873 11.1555C157.644 10.8946 157.331 10.6787 156.935 10.5078C156.544 10.3369 156.101 10.1862 155.606 10.0558L153.973 9.61044C152.867 9.30907 151.989 8.866 151.342 8.28125C150.698 7.6965 150.377 6.92282 150.377 5.96023C150.377 5.16406 150.593 4.4691 151.025 3.87535C151.456 3.2816 152.041 2.82055 152.779 2.49219C153.517 2.15933 154.349 1.9929 155.275 1.9929C156.211 1.9929 157.036 2.15708 157.751 2.48544C158.471 2.8138 159.038 3.26586 159.452 3.84162C159.866 4.41288 160.081 5.0696 160.099 5.81179H158.089Z" fill="black"/>
</svg>
