<svg width="115" height="20" viewBox="0 0 115 20" fill="none" xmlns="http://www.w3.org/2000/svg">
<g clip-path="url(#clip0_5_3730)">
<path d="M0.0786133 15.6133V5.07422L9.05908 0.84375L18.0396 5.07422V15.6133L9.05908 19.8438L0.0786133 15.6133Z" fill="black"/>
</g>
<path d="M28.2369 16.8438V3.02557H33.1623C34.2373 3.02557 35.128 3.22124 35.8342 3.61257C36.5404 4.00391 37.0689 4.53918 37.4197 5.21839C37.7706 5.89311 37.946 6.65329 37.946 7.49893C37.946 8.34908 37.7683 9.11375 37.413 9.79297C37.0621 10.4677 36.5314 11.003 35.8207 11.3988C35.1145 11.7901 34.2261 11.9858 33.1555 11.9858H29.7685V10.218H32.9666C33.6458 10.218 34.1969 10.1011 34.6197 9.86719C35.0425 9.62879 35.3529 9.30492 35.5508 8.8956C35.7487 8.48627 35.8477 8.02071 35.8477 7.49893C35.8477 6.97715 35.7487 6.51385 35.5508 6.10902C35.3529 5.70419 35.0402 5.38707 34.6129 5.15767C34.1901 4.92827 33.6323 4.81357 32.9396 4.81357H30.3217V16.8438H28.2369ZM52.0334 9.93466C52.0334 11.41 51.7635 12.6785 51.2237 13.7401C50.6839 14.7971 49.944 15.6113 49.0039 16.1825C48.0683 16.7493 47.0045 17.0327 45.8125 17.0327C44.616 17.0327 43.5477 16.7493 42.6076 16.1825C41.672 15.6113 40.9343 14.7949 40.3945 13.7333C39.8548 12.6718 39.5849 11.4055 39.5849 9.93466C39.5849 8.45928 39.8548 7.19306 40.3945 6.13601C40.9343 5.07445 41.672 4.2603 42.6076 3.69354C43.5477 3.12228 44.616 2.83665 45.8125 2.83665C47.0045 2.83665 48.0683 3.12228 49.0039 3.69354C49.944 4.2603 50.6839 5.07445 51.2237 6.13601C51.7635 7.19306 52.0334 8.45928 52.0334 9.93466ZM49.9687 9.93466C49.9687 8.81013 49.7866 7.86328 49.4222 7.0941C49.0624 6.32043 48.5676 5.73568 47.9379 5.33984C47.3126 4.93951 46.6042 4.73935 45.8125 4.73935C45.0163 4.73935 44.3056 4.93951 43.6804 5.33984C43.0552 5.73568 42.5604 6.32043 42.196 7.0941C41.8362 7.86328 41.6562 8.81013 41.6562 9.93466C41.6562 11.0592 41.8362 12.0083 42.196 12.782C42.5604 13.5511 43.0552 14.1359 43.6804 14.5362C44.3056 14.9321 45.0163 15.13 45.8125 15.13C46.6042 15.13 47.3126 14.9321 47.9379 14.5362C48.5676 14.1359 49.0624 13.5511 49.4222 12.782C49.7866 12.0083 49.9687 11.0592 49.9687 9.93466ZM54.2727 16.8438V3.02557H59.1981C60.2732 3.02557 61.1638 3.22124 61.87 3.61257C62.5762 4.00391 63.1048 4.53918 63.4556 5.21839C63.8065 5.89311 63.9819 6.65329 63.9819 7.49893C63.9819 8.34908 63.8042 9.11375 63.4489 9.79297C63.098 10.4677 62.5672 11.003 61.8565 11.3988C61.1503 11.7901 60.2619 11.9858 59.1914 11.9858H55.8043V10.218H59.0025C59.6817 10.218 60.2327 10.1011 60.6555 9.86719C61.0784 9.62879 61.3887 9.30492 61.5866 8.8956C61.7846 8.48627 61.8835 8.02071 61.8835 7.49893C61.8835 6.97715 61.7846 6.51385 61.5866 6.10902C61.3887 5.70419 61.0761 5.38707 60.6488 5.15767C60.226 4.92827 59.6682 4.81357 58.9755 4.81357H56.3576V16.8438H54.2727ZM74.952 3.02557H77.0437V12.114C77.0437 13.0811 76.8165 13.938 76.3622 14.6847C75.9079 15.4268 75.2692 16.0116 74.446 16.4389C73.6229 16.8617 72.658 17.0732 71.5515 17.0732C70.4494 17.0732 69.4868 16.8617 68.6637 16.4389C67.8405 16.0116 67.2018 15.4268 66.7475 14.6847C66.2932 13.938 66.066 13.0811 66.066 12.114V3.02557H68.1509V11.9453C68.1509 12.5705 68.2881 13.1261 68.5625 13.6119C68.8414 14.0977 69.235 14.48 69.7432 14.7589C70.2515 15.0333 70.8543 15.1705 71.5515 15.1705C72.2532 15.1705 72.8582 15.0333 73.3665 14.7589C73.8792 14.48 74.2706 14.0977 74.5405 13.6119C74.8149 13.1261 74.952 12.5705 74.952 11.9453V3.02557ZM79.7148 16.8438V3.02557H81.7997V15.049H88.0611V16.8438H79.7148ZM91.9518 16.8438H89.7387L94.7114 3.02557H97.1201L102.093 16.8438H99.8797L95.9731 5.53551H95.8651L91.9518 16.8438ZM92.3229 11.4325H99.5018V13.1868H92.3229V11.4325ZM103.728 16.8438V3.02557H108.654C109.724 3.02557 110.613 3.20999 111.319 3.57883C112.029 3.94768 112.56 4.45821 112.911 5.11044C113.262 5.75817 113.437 6.5071 113.437 7.35724C113.437 8.20289 113.26 8.94732 112.904 9.59055C112.554 10.2293 112.023 10.7263 111.312 11.0817C110.606 11.437 109.717 11.6147 108.647 11.6147H104.916V9.81996H108.458C109.133 9.81996 109.681 9.72325 110.104 9.52983C110.532 9.33641 110.844 9.05528 111.042 8.68643C111.24 8.31759 111.339 7.87453 111.339 7.35724C111.339 6.83546 111.238 6.3834 111.035 6.00107C110.837 5.61873 110.525 5.32635 110.098 5.12393C109.675 4.91702 109.119 4.81357 108.431 4.81357H105.813V16.8438H103.728ZM110.55 10.6094L113.964 16.8438H111.589L108.242 10.6094H110.55Z" fill="black"/>
<defs>
<clipPath id="clip0_5_3730">
<rect width="18.6406" height="19" fill="white" transform="matrix(1 0 0 -1 0.078125 19.8438)"/>
</clipPath>
</defs>
</svg>
