<svg width="120" height="20" viewBox="0 0 120 20" fill="none" xmlns="http://www.w3.org/2000/svg">
<g clip-path="url(#clip0_5_3754)">
<path d="M0.913086 4.64746L3.77051 10.3438L0.913086 16.04H6.33105L8.98438 19.8438L11.6562 16.04H17.0557L14.2168 10.3438L17.0557 4.64746H11.6562L8.98438 0.84375L6.33105 4.64746H0.913086Z" fill="black"/>
</g>
<path d="M25.5398 4.82031V3.02557H36.234V4.82031H31.9226V16.8438H29.8445V4.82031H25.5398ZM38.2372 16.8438V3.02557H43.1626C44.2332 3.02557 45.1216 3.20999 45.8278 3.57883C46.5385 3.94768 47.0692 4.45821 47.4201 5.11044C47.7709 5.75817 47.9464 6.5071 47.9464 7.35724C47.9464 8.20289 47.7687 8.94732 47.4133 9.59055C47.0625 10.2293 46.5317 10.7263 45.821 11.0817C45.1148 11.437 44.2264 11.6147 43.1559 11.6147H39.4247V9.81996H42.967C43.6417 9.81996 44.1905 9.72325 44.6133 9.52983C45.0406 9.33641 45.3532 9.05528 45.5511 8.68643C45.749 8.31759 45.848 7.87453 45.848 7.35724C45.848 6.83546 45.7468 6.3834 45.5444 6.00107C45.3465 5.61873 45.0339 5.32635 44.6065 5.12393C44.1837 4.91702 43.6282 4.81357 42.94 4.81357H40.3221V16.8438H38.2372ZM45.0586 10.6094L48.4727 16.8438H46.0977L42.7511 10.6094H45.0586ZM50.1233 16.8438V3.02557H58.7867V4.82031H52.2082V9.03054H58.3346V10.8185H52.2082V15.049H58.8676V16.8438H50.1233ZM72.3646 3.02557V16.8438H70.4484L63.4246 6.70952H63.2964V16.8438H61.2115V3.02557H63.1412L70.1718 13.1733H70.3V3.02557H72.3646ZM79.5193 16.8438H75.0459V3.02557H79.6609C81.0149 3.02557 82.1776 3.3022 83.1492 3.85547C84.1208 4.40424 84.8653 5.19365 85.3825 6.22372C85.9043 7.24929 86.1652 8.47952 86.1652 9.91442C86.1652 11.3538 85.9021 12.5908 85.3758 13.6254C84.854 14.6599 84.0983 15.4561 83.1087 16.0138C82.1192 16.5671 80.9227 16.8438 79.5193 16.8438ZM77.1308 15.022H79.4046C80.4571 15.022 81.332 14.8241 82.0292 14.4283C82.7264 14.0279 83.2482 13.4499 83.5945 12.6942C83.9409 11.9341 84.1141 11.0075 84.1141 9.91442C84.1141 8.83037 83.9409 7.91051 83.5945 7.15483C83.2527 6.39915 82.7421 5.82564 82.0629 5.4343C81.3837 5.04297 80.5403 4.8473 79.5327 4.8473H77.1308V15.022ZM90.4827 3.02557V16.8438H88.3978V3.02557H90.4827ZM104.312 3.02557V16.8438H102.396L95.372 6.70952H95.2438V16.8438H93.1589V3.02557H95.0886L102.119 13.1733H102.247V3.02557H104.312ZM116.345 7.39098C116.214 6.98165 116.039 6.61506 115.819 6.29119C115.603 5.96283 115.344 5.68395 115.043 5.45455C114.741 5.22064 114.397 5.04297 114.01 4.92152C113.628 4.80007 113.207 4.73935 112.749 4.73935C111.97 4.73935 111.269 4.93951 110.643 5.33984C110.018 5.74018 109.523 6.32718 109.159 7.10085C108.799 7.87003 108.619 8.81238 108.619 9.92791C108.619 11.0479 108.801 11.9948 109.166 12.7685C109.53 13.5421 110.029 14.1291 110.664 14.5295C111.298 14.9298 112.02 15.13 112.83 15.13C113.581 15.13 114.235 14.977 114.793 14.6712C115.355 14.3653 115.789 13.9335 116.095 13.3757C116.406 12.8134 116.561 12.1522 116.561 11.392L117.1 11.4933H113.147V9.77273H118.578V11.3448C118.578 12.5053 118.331 13.5129 117.836 14.3675C117.346 15.2177 116.666 15.8744 115.798 16.3377C114.935 16.801 113.945 17.0327 112.83 17.0327C111.579 17.0327 110.482 16.7448 109.537 16.169C108.597 15.5933 107.864 14.7769 107.337 13.7198C106.811 12.6583 106.548 11.3988 106.548 9.94141C106.548 8.83937 106.701 7.84979 107.007 6.97266C107.313 6.09553 107.742 5.35109 108.295 4.73935C108.853 4.12311 109.508 3.65305 110.259 3.32919C111.015 3.00083 111.84 2.83665 112.735 2.83665C113.482 2.83665 114.177 2.94685 114.82 3.16726C115.468 3.38767 116.043 3.70028 116.547 4.10511C117.055 4.50994 117.476 4.99124 117.809 5.54901C118.142 6.10227 118.367 6.71626 118.484 7.39098H116.345Z" fill="black"/>
<defs>
<clipPath id="clip0_5_3754">
<rect width="15.7969" height="19" fill="white" transform="matrix(1 0 0 -1 0.90625 19.8438)"/>
</clipPath>
</defs>
</svg>
