<svg width="85" height="14" viewBox="0 0 85 14" fill="none" xmlns="http://www.w3.org/2000/svg">
<path d="M2.28835 0.181818L6.13423 11.4361H6.28942L10.1353 0.181818H12.3889L7.41619 14H5.00746L0.0348011 0.181818H2.28835ZM16.1092 0.181818V14H14.0243V0.181818H16.1092ZM18.7854 14V0.181818H27.4488V1.97656H20.8703V6.18679H26.9967V7.97479H20.8703V12.2053H27.5297V14H18.7854ZM32.5793 14L28.7469 0.181818H30.9397L33.6318 10.8828H33.76L36.5601 0.181818H38.7327L41.5327 10.8896H41.6609L44.3463 0.181818H46.5459L42.7068 14H40.6084L37.7004 3.64986H37.5924L34.6844 14H32.5793ZM53.9225 14H51.7094L56.6821 0.181818H59.0908L64.0635 14H61.8504L57.9438 2.69176H57.8358L53.9225 14ZM54.2936 8.58878H61.4726V10.343H54.2936V8.58878ZM65.6989 14V0.181818H67.7838V12.2053H74.0452V14H65.6989ZM76.0635 14V0.181818H78.1484V12.2053H84.4098V14H76.0635Z" fill="black"/>
</svg>
